<?xml version="1.0" encoding="UTF-8"?>
<!DOCTYPE svg PUBLIC "-//W3C//DTD SVG 1.1//EN" "http://www.w3.org/Graphics/SVG/1.1/DTD/svg11.dtd">
<svg xmlns="http://www.w3.org/2000/svg" version="1.1" width="512px" height="512px" style="shape-rendering:geometricPrecision; text-rendering:geometricPrecision; image-rendering:optimizeQuality; fill-rule:evenodd; clip-rule:evenodd" xmlns:xlink="http://www.w3.org/1999/xlink">
<g><path style="opacity:0.981" fill="#14428a" d="M 90.5,122.5 C 129.835,122.333 169.168,122.5 208.5,123C 218.804,126.302 225.304,133.136 228,143.5C 228.333,147.167 228.667,150.833 229,154.5C 229.667,224.833 229.667,295.167 229,365.5C 225.591,375.743 218.757,382.41 208.5,385.5C 169.171,386.667 129.838,386.833 90.5,386C 87.9212,384.504 85.2545,383.171 82.5,382C 79.989,379.157 77.1557,376.657 74,374.5C 72.8443,370.877 71.8443,367.211 71,363.5C 69.4991,291.506 69.1657,219.506 70,147.5C 71.1189,142.604 72.7856,137.937 75,133.5C 77.8333,132 80,129.833 81.5,127C 84.9382,125.948 87.9382,124.448 90.5,122.5 Z M 124.5,176.5 C 141.5,176.5 158.5,176.5 175.5,176.5C 175.5,228.5 175.5,280.5 175.5,332.5C 158.833,332.5 142.167,332.5 125.5,332.5C 125.305,280.499 124.971,228.499 124.5,176.5 Z"/></g>
<g><path style="opacity:0.967" fill="#14418b" d="M 300.5,122.5 C 340.881,122.023 381.214,122.523 421.5,124C 436.206,131.727 441.206,143.561 436.5,159.5C 432.979,167.715 426.979,173.215 418.5,176C 378.5,176.667 338.5,176.667 298.5,176C 281.62,169.438 275.786,157.271 281,139.5C 282.727,135.981 284.727,132.648 287,129.5C 291.523,127.059 296.023,124.726 300.5,122.5 Z"/></g>
<g><path style="opacity:0.97" fill="#14428b" d="M 302.5,226.5 C 340.851,226.185 379.184,226.518 417.5,227.5C 430.9,231.562 437.9,240.562 438.5,254.5C 437.242,269.558 429.242,278.391 414.5,281C 375.467,281.964 336.467,281.63 297.5,280C 281.024,272.436 275.69,259.936 281.5,242.5C 284.303,238.198 287.636,234.365 291.5,231C 295.514,229.951 299.18,228.451 302.5,226.5 Z"/></g>
<g><path style="opacity:0.976" fill="#14428b" d="M 362.5,331.5 C 381.512,331.167 400.512,331.5 419.5,332.5C 436.714,340.262 442.214,353.262 436,371.5C 432.833,376 429,379.833 424.5,383C 422.5,383.667 420.5,384.333 418.5,385C 379.167,385.667 339.833,385.667 300.5,385C 295.086,383.985 290.42,381.651 286.5,378C 284.513,374.363 282.513,370.696 280.5,367C 277.496,353.868 281.329,343.368 292,335.5C 294.368,334.283 296.868,333.449 299.5,333C 320.671,332.832 341.671,332.332 362.5,331.5 Z"/></g>
</svg>
