<?xml version="1.0" encoding="UTF-8"?>
<!DOCTYPE svg PUBLIC "-//W3C//DTD SVG 1.1//EN" "http://www.w3.org/Graphics/SVG/1.1/DTD/svg11.dtd">
<svg xmlns="http://www.w3.org/2000/svg" version="1.1" width="368px" height="368px" style="shape-rendering:geometricPrecision; text-rendering:geometricPrecision; image-rendering:optimizeQuality; fill-rule:evenodd; clip-rule:evenodd" xmlns:xlink="http://www.w3.org/1999/xlink">
<g><path style="opacity:1" fill="#fefefe" d="M -0.5,-0.5 C 122.167,-0.5 244.833,-0.5 367.5,-0.5C 367.5,122.167 367.5,244.833 367.5,367.5C 244.833,367.5 122.167,367.5 -0.5,367.5C -0.5,244.833 -0.5,122.167 -0.5,-0.5 Z"/></g>
<g><path style="opacity:1" fill="#3cbdf8" d="M 176.5,105.5 C 176.577,106.75 177.244,107.583 178.5,108C 180.473,108.495 182.473,108.662 184.5,108.5C 185.605,109.6 186.938,110.267 188.5,110.5C 188.973,111.906 189.973,112.573 191.5,112.5C 192.167,112.5 192.833,112.5 193.5,112.5C 193.973,113.906 194.973,114.573 196.5,114.5C 197.78,115.931 199.447,116.598 201.5,116.5C 203.691,117.869 206.025,118.869 208.5,119.5C 209.78,120.931 211.447,121.598 213.5,121.5C 234.617,128.343 253.95,125.009 271.5,111.5C 273.909,110.299 275.909,108.633 277.5,106.5C 278.906,106.027 279.573,105.027 279.5,103.5C 281.632,103.446 282.965,102.446 283.5,100.5C 283.414,99.5041 283.748,98.6708 284.5,98C 286.441,97.2571 288.274,97.4238 290,98.5C 290.828,114.339 290.661,130.005 289.5,145.5C 287.091,146.701 285.091,148.367 283.5,150.5C 281.246,151.124 279.579,152.457 278.5,154.5C 276.358,156.97 273.691,158.636 270.5,159.5C 268.181,159.992 266.181,160.992 264.5,162.5C 247.695,169.607 230.362,171.274 212.5,167.5C 209.781,166.087 206.781,165.42 203.5,165.5C 203.167,165.5 202.833,165.5 202.5,165.5C 201.713,163.896 200.38,163.229 198.5,163.5C 192.962,161.793 187.629,159.793 182.5,157.5C 180.898,155.926 178.898,155.259 176.5,155.5C 175.209,155.737 174.209,155.404 173.5,154.5C 172.7,152.259 171.034,151.259 168.5,151.5C 166.716,151.107 165.05,150.441 163.5,149.5C 162.713,147.896 161.38,147.229 159.5,147.5C 144.025,141.844 128.358,141.177 112.5,145.5C 110.597,145.796 108.93,146.463 107.5,147.5C 106.833,147.5 106.5,147.833 106.5,148.5C 104.326,148.75 102.659,149.75 101.5,151.5C 99.2512,152.08 97.5846,153.413 96.5,155.5C 94.5956,155.738 93.2623,156.738 92.5,158.5C 91.2905,158.932 90.2905,159.599 89.5,160.5C 88.8333,160.5 88.5,160.833 88.5,161.5C 86.5,162.833 84.8333,164.5 83.5,166.5C 82.3744,167.714 81.0411,168.714 79.5,169.5C 78.5581,169.392 77.7247,169.059 77,168.5C 76.3333,153.833 76.3333,139.167 77,124.5C 78.3756,123.295 79.5423,121.962 80.5,120.5C 82.5,119.167 84.1667,117.5 85.5,115.5C 89.2609,111.404 93.5943,108.07 98.5,105.5C 101.152,105.59 103.485,104.924 105.5,103.5C 122.02,97.3191 139.02,96.1525 156.5,100C 163.214,101.739 169.88,103.572 176.5,105.5 Z"/></g>
<g><path style="opacity:1" fill="#a5e0fa" d="M 283.5,100.5 C 282.965,102.446 281.632,103.446 279.5,103.5C 280.436,102.026 281.77,101.026 283.5,100.5 Z"/></g>
<g><path style="opacity:1" fill="#a0defa" d="M 105.5,103.5 C 103.485,104.924 101.152,105.59 98.5,105.5C 100.515,104.076 102.848,103.41 105.5,103.5 Z"/></g>
<g><path style="opacity:1" fill="#b5e5fb" d="M 279.5,103.5 C 279.573,105.027 278.906,106.027 277.5,106.5C 277.427,104.973 278.094,103.973 279.5,103.5 Z"/></g>
<g><path style="opacity:1" fill="#c7ebfb" d="M 176.5,105.5 C 179.443,105.98 182.11,106.98 184.5,108.5C 182.473,108.662 180.473,108.495 178.5,108C 177.244,107.583 176.577,106.75 176.5,105.5 Z"/></g>
<g><path style="opacity:1" fill="#bbe7fb" d="M 277.5,106.5 C 275.909,108.633 273.909,110.299 271.5,111.5C 271.414,110.504 271.748,109.671 272.5,109C 273.9,107.562 275.567,106.729 277.5,106.5 Z"/></g>
<g><path style="opacity:1" fill="#b7e6fb" d="M 188.5,110.5 C 190.027,110.427 191.027,111.094 191.5,112.5C 189.973,112.573 188.973,111.906 188.5,110.5 Z"/></g>
<g><path style="opacity:1" fill="#b2e3f9" d="M 193.5,112.5 C 195.179,112.285 196.179,112.952 196.5,114.5C 194.973,114.573 193.973,113.906 193.5,112.5 Z"/></g>
<g><path style="opacity:1" fill="#c1e8fb" d="M 196.5,114.5 C 198.781,114.077 200.448,114.744 201.5,116.5C 199.447,116.598 197.78,115.931 196.5,114.5 Z"/></g>
<g><path style="opacity:1" fill="#d7effa" d="M 85.5,115.5 C 84.1667,117.5 82.5,119.167 80.5,120.5C 80.8333,117.5 82.5,115.833 85.5,115.5 Z"/></g>
<g><path style="opacity:1" fill="#c1e9fb" d="M 208.5,119.5 C 210.698,119.12 212.365,119.787 213.5,121.5C 211.447,121.598 209.78,120.931 208.5,119.5 Z"/></g>
<g><path style="opacity:1" fill="#bfe6f9" d="M 112.5,145.5 C 112.013,146.473 111.513,147.473 111,148.5C 109.989,147.663 108.822,147.33 107.5,147.5C 108.93,146.463 110.597,145.796 112.5,145.5 Z"/></g>
<g><path style="opacity:1" fill="#c1e8fa" d="M 159.5,147.5 C 161.38,147.229 162.713,147.896 163.5,149.5C 161.62,149.771 160.287,149.104 159.5,147.5 Z"/></g>
<g><path style="opacity:1" fill="#c8ebfb" d="M 289.5,145.5 C 289.586,146.496 289.252,147.329 288.5,148C 287.1,149.438 285.433,150.271 283.5,150.5C 285.091,148.367 287.091,146.701 289.5,145.5 Z"/></g>
<g><path style="opacity:1" fill="#afe3f9" d="M 106.5,148.5 C 105.341,150.25 103.674,151.25 101.5,151.5C 102.659,149.75 104.326,148.75 106.5,148.5 Z"/></g>
<g><path style="opacity:1" fill="#cdedfb" d="M 101.5,151.5 C 101.011,154.324 99.344,155.657 96.5,155.5C 97.5846,153.413 99.2512,152.08 101.5,151.5 Z"/></g>
<g><path style="opacity:1" fill="#c4e9fb" d="M 168.5,151.5 C 171.034,151.259 172.7,152.259 173.5,154.5C 171.272,154.223 169.605,153.223 168.5,151.5 Z"/></g>
<g><path style="opacity:1" fill="#a8e0fa" d="M 176.5,155.5 C 178.898,155.259 180.898,155.926 182.5,157.5C 180.214,157.405 178.214,156.738 176.5,155.5 Z"/></g>
<g><path style="opacity:1" fill="#ceecf9" d="M 278.5,154.5 C 277.498,156.011 276.831,157.678 276.5,159.5C 274.5,159.5 272.5,159.5 270.5,159.5C 273.691,158.636 276.358,156.97 278.5,154.5 Z"/></g>
<g><path style="opacity:1" fill="#c0e6f8" d="M 92.5,158.5 C 92.1788,160.048 91.1788,160.715 89.5,160.5C 90.2905,159.599 91.2905,158.932 92.5,158.5 Z"/></g>
<g><path style="opacity:1" fill="#c7eafb" d="M 270.5,159.5 C 269.32,161.913 267.32,162.913 264.5,162.5C 266.181,160.992 268.181,159.992 270.5,159.5 Z"/></g>
<g><path style="opacity:1" fill="#d1eefa" d="M 88.5,161.5 C 88.5,164.833 86.8333,166.5 83.5,166.5C 84.8333,164.5 86.5,162.833 88.5,161.5 Z"/></g>
<g><path style="opacity:1" fill="#c1e9fb" d="M 198.5,163.5 C 200.38,163.229 201.713,163.896 202.5,165.5C 200.62,165.771 199.287,165.104 198.5,163.5 Z"/></g>
<g><path style="opacity:1" fill="#a5dffa" d="M 203.5,165.5 C 206.781,165.42 209.781,166.087 212.5,167.5C 209.123,167.932 206.123,167.265 203.5,165.5 Z"/></g>
<g><path style="opacity:1" fill="#bbe5f9" d="M 289.5,173.5 C 287.142,173.253 285.142,173.919 283.5,175.5C 283.5,174.5 283.5,173.5 283.5,172.5C 285.735,172.205 287.735,172.539 289.5,173.5 Z"/></g>
<g><path style="opacity:1" fill="#3cbdf8" d="M 182.5,182.5 C 182.973,183.906 183.973,184.573 185.5,184.5C 186.5,184.5 187.5,184.5 188.5,184.5C 189.607,186.969 191.607,187.969 194.5,187.5C 195.911,189.539 197.911,190.539 200.5,190.5C 202.102,192.074 204.102,192.741 206.5,192.5C 220.111,199.486 234.444,201.153 249.5,197.5C 251.97,197.346 253.97,196.346 255.5,194.5C 257.322,194.169 258.989,193.502 260.5,192.5C 266.369,190.404 271.369,187.071 275.5,182.5C 278.784,180.883 281.451,178.55 283.5,175.5C 285.142,173.919 287.142,173.253 289.5,173.5C 290.661,188.328 290.828,203.328 290,218.5C 289.292,219.381 288.458,220.047 287.5,220.5C 285.142,222.529 282.808,224.529 280.5,226.5C 277.527,228.147 274.86,230.147 272.5,232.5C 267.098,234.872 261.765,237.205 256.5,239.5C 254.299,240.566 251.965,241.233 249.5,241.5C 239.216,243.598 228.882,243.931 218.5,242.5C 213.588,242.102 208.921,241.102 204.5,239.5C 200.926,238.019 197.26,236.686 193.5,235.5C 189.884,234.686 186.551,233.352 183.5,231.5C 179.693,229.451 175.693,227.784 171.5,226.5C 169.5,225.833 167.5,225.167 165.5,224.5C 160.73,222.128 155.73,220.128 150.5,218.5C 147.411,217.215 144.078,216.549 140.5,216.5C 133.132,216.317 125.799,216.65 118.5,217.5C 112.404,218.302 107.07,220.635 102.5,224.5C 96.2264,228.441 90.5597,233.108 85.5,238.5C 83.3894,240.631 81.0561,242.298 78.5,243.5C 77.8826,243.389 77.3826,243.056 77,242.5C 76.1672,227.822 76.3338,213.155 77.5,198.5C 81.1983,194.135 85.1983,190.135 89.5,186.5C 91.7772,185.551 93.7772,184.218 95.5,182.5C 113.947,172.615 133.614,169.781 154.5,174C 164.082,176.226 173.415,179.059 182.5,182.5 Z"/></g>
<g><path style="opacity:1" fill="#ceedfb" d="M 283.5,175.5 C 281.451,178.55 278.784,180.883 275.5,182.5C 276.861,178.812 279.528,176.479 283.5,175.5 Z"/></g>
<g><path style="opacity:1" fill="#c9ecfb" d="M 95.5,182.5 C 93.7772,184.218 91.7772,185.551 89.5,186.5C 90.4647,183.68 92.4647,182.347 95.5,182.5 Z"/></g>
<g><path style="opacity:1" fill="#b7e6fc" d="M 182.5,182.5 C 184.027,182.427 185.027,183.094 185.5,184.5C 183.973,184.573 182.973,183.906 182.5,182.5 Z"/></g>
<g><path style="opacity:1" fill="#c2e9fb" d="M 275.5,182.5 C 271.369,187.071 266.369,190.404 260.5,192.5C 263.748,189.66 267.081,186.827 270.5,184C 272.025,182.991 273.692,182.491 275.5,182.5 Z"/></g>
<g><path style="opacity:1" fill="#ceecfa" d="M 188.5,184.5 C 191.077,184.455 193.077,185.455 194.5,187.5C 191.607,187.969 189.607,186.969 188.5,184.5 Z"/></g>
<g><path style="opacity:1" fill="#c1e8fa" d="M 194.5,187.5 C 197.077,187.455 199.077,188.455 200.5,190.5C 197.911,190.539 195.911,189.539 194.5,187.5 Z"/></g>
<g><path style="opacity:1" fill="#d3effc" d="M 200.5,190.5 C 203.01,190.054 205.01,190.72 206.5,192.5C 204.102,192.741 202.102,192.074 200.5,190.5 Z"/></g>
<g><path style="opacity:1" fill="#c0e8fb" d="M 255.5,194.5 C 253.97,196.346 251.97,197.346 249.5,197.5C 250.687,195.025 252.687,194.025 255.5,194.5 Z"/></g>
<g><path style="opacity:1" fill="#a2defa" d="M 140.5,216.5 C 144.078,216.549 147.411,217.215 150.5,218.5C 148.833,218.5 147.167,218.5 145.5,218.5C 143.447,218.598 141.78,217.931 140.5,216.5 Z"/></g>
<g><path style="opacity:1" fill="#bde7fb" d="M 118.5,217.5 C 114.809,219.184 111.143,221.184 107.5,223.5C 105.865,224.046 104.199,224.38 102.5,224.5C 107.07,220.635 112.404,218.302 118.5,217.5 Z"/></g>
<g><path style="opacity:1" fill="#def0f9" d="M 145.5,218.5 C 147.167,218.5 148.833,218.5 150.5,218.5C 155.73,220.128 160.73,222.128 165.5,224.5C 158.563,223.01 151.896,221.01 145.5,218.5 Z"/></g>
<g><path style="opacity:1" fill="#caebfa" d="M 287.5,220.5 C 286.7,224.301 284.367,226.301 280.5,226.5C 282.808,224.529 285.142,222.529 287.5,220.5 Z"/></g>
<g><path style="opacity:1" fill="#ade2fa" d="M 171.5,226.5 C 175.693,227.784 179.693,229.451 183.5,231.5C 178.908,231.031 174.908,229.365 171.5,226.5 Z"/></g>
<g><path style="opacity:1" fill="#c5e9fa" d="M 280.5,226.5 C 280.5,227.5 280.5,228.5 280.5,229.5C 277.86,230.448 275.193,231.448 272.5,232.5C 274.86,230.147 277.527,228.147 280.5,226.5 Z"/></g>
<g><path style="opacity:1" fill="#c4e9f9" d="M 102.5,224.5 C 102.489,226.017 101.823,227.184 100.5,228C 95.9625,231.709 91.2958,235.209 86.5,238.5C 86.1667,238.5 85.8333,238.5 85.5,238.5C 90.5597,233.108 96.2264,228.441 102.5,224.5 Z"/></g>
<g><path style="opacity:1" fill="#b2e3fa" d="M 193.5,235.5 C 197.26,236.686 200.926,238.019 204.5,239.5C 200.014,240.119 196.347,238.785 193.5,235.5 Z"/></g>
<g><path style="opacity:1" fill="#b8e4f9" d="M 272.5,232.5 C 272.586,233.496 272.252,234.329 271.5,235C 268.853,236.299 266.186,237.632 263.5,239C 261.19,239.497 258.857,239.663 256.5,239.5C 261.765,237.205 267.098,234.872 272.5,232.5 Z"/></g>
<g><path style="opacity:1" fill="#e8f5fa" d="M 85.5,238.5 C 85.8333,238.5 86.1667,238.5 86.5,238.5C 88.315,240.468 88.815,242.802 88,245.5C 87,244.833 86,244.167 85,243.5C 82.9871,244.343 80.8204,244.343 78.5,243.5C 81.0561,242.298 83.3894,240.631 85.5,238.5 Z"/></g>
<g><path style="opacity:1" fill="#e3f5fd" d="M 249.5,241.5 C 248.653,242.966 247.32,243.8 245.5,244C 240.653,244.38 235.82,244.88 231,245.5C 226.361,245.405 222.194,244.405 218.5,242.5C 228.882,243.931 239.216,243.598 249.5,241.5 Z"/></g>
</svg>
